<svg width="79" height="79" viewBox="0 0 79 79" fill="none" xmlns="http://www.w3.org/2000/svg">
<circle cx="39.5" cy="39.5" r="39.5" fill="#544275"/>
<path d="M28.2767 25.6667C28.4 27.2983 28.7083 28.8933 29.2017 30.415L26.735 32.615C25.8922 30.415 25.3578 28.0867 25.1728 25.6667H28.2767ZM48.5444 47.7033C50.2917 48.1433 52.08 48.4183 53.8889 48.5283V51.26C51.1756 51.095 48.565 50.6183 46.0778 49.885L48.5444 47.7033ZM30.25 22H23.0556C21.925 22 21 22.825 21 23.8333C21 41.0483 36.6428 55 55.9444 55C57.075 55 58 54.175 58 53.1667V46.7683C58 45.76 57.075 44.935 55.9444 44.935C53.3956 44.935 50.9083 44.5683 48.6061 43.89C48.4006 43.8167 48.1744 43.7983 47.9689 43.7983C47.4344 43.7983 46.9206 43.9817 46.5094 44.33L41.9872 48.3633C36.17 45.705 31.4011 41.47 28.4411 36.2817L32.9633 32.2483C33.5389 31.735 33.7033 31.02 33.4772 30.3783C32.7167 28.325 32.3056 26.125 32.3056 23.8333C32.3056 22.825 31.3806 22 30.25 22Z" fill="#DACFEA"/>
</svg>
