<svg width="25" height="35" viewBox="0 0 25 35" fill="none" xmlns="http://www.w3.org/2000/svg">
<path d="M12.5 0C5.58929 0 0 5.4775 0 12.25C0 21.4375 12.5 35 12.5 35C12.5 35 25 21.4375 25 12.25C25 5.4775 19.4107 0 12.5 0ZM3.57143 12.25C3.57143 7.42 7.57143 3.5 12.5 3.5C17.4286 3.5 21.4286 7.42 21.4286 12.25C21.4286 17.29 16.2857 24.8325 12.5 29.54C8.78571 24.8675 3.57143 17.2375 3.57143 12.25Z" fill="#DACFEA"/>
<path d="M12.4994 16.625C14.965 16.625 16.9637 14.6662 16.9637 12.25C16.9637 9.83375 14.965 7.875 12.4994 7.875C10.0339 7.875 8.03516 9.83375 8.03516 12.25C8.03516 14.6662 10.0339 16.625 12.4994 16.625Z" fill="#DACFEA"/>
</svg>
