<svg width="79" height="79" viewBox="0 0 79 79" fill="none" xmlns="http://www.w3.org/2000/svg">
<circle cx="39.5" cy="39.5" r="39.5" fill="#544275"/>
<path d="M30.3889 21C24.1091 21 19 25.6106 19 31.2778V47.7222C19 53.3894 24.1091 58 30.3889 58H48.6111C54.8909 58 60 53.3894 60 47.7222V31.2778C60 25.6106 54.8909 21 48.6111 21H30.3889ZM30.3889 25.1111H48.6111C52.3786 25.1111 55.4444 27.8779 55.4444 31.2778V47.7222C55.4444 51.1221 52.3786 53.8889 48.6111 53.8889H30.3889C26.6214 53.8889 23.5556 51.1221 23.5556 47.7222V31.2778C23.5556 27.8779 26.6214 25.1111 30.3889 25.1111ZM50.8889 27.1667C50.2848 27.1667 49.7054 27.3832 49.2783 27.7687C48.8511 28.1542 48.6111 28.6771 48.6111 29.2222C48.6111 29.7674 48.8511 30.2902 49.2783 30.6757C49.7054 31.0612 50.2848 31.2778 50.8889 31.2778C51.493 31.2778 52.0724 31.0612 52.4995 30.6757C52.9267 30.2902 53.1667 29.7674 53.1667 29.2222C53.1667 28.6771 52.9267 28.1542 52.4995 27.7687C52.0724 27.3832 51.493 27.1667 50.8889 27.1667ZM39.5 29.2222C33.2202 29.2222 28.1111 33.8328 28.1111 39.5C28.1111 45.1672 33.2202 49.7778 39.5 49.7778C45.7798 49.7778 50.8889 45.1672 50.8889 39.5C50.8889 33.8328 45.7798 29.2222 39.5 29.2222ZM39.5 33.3333C43.2674 33.3333 46.3333 36.1001 46.3333 39.5C46.3333 42.8999 43.2674 45.6667 39.5 45.6667C35.7326 45.6667 32.6667 42.8999 32.6667 39.5C32.6667 36.1001 35.7326 33.3333 39.5 33.3333Z" fill="#DACFEA"/>
</svg>
