<svg width="25" height="26" viewBox="0 0 25 26" fill="none" xmlns="http://www.w3.org/2000/svg">
<path d="M23.2159 0.0153931C22.8003 -0.0355267 22.3486 0.0394536 21.8948 0.246744C21.3321 0.502425 12.516 4.78713 4.29788 8.78414L1.5824 10.1045C0.530905 10.5971 0 11.3982 0 12.4773C0 13.2328 0.276744 14.2575 1.59705 14.8613L6.18064 16.983C6.57698 18.3567 7.49755 21.5464 7.72885 22.3943C7.86638 22.897 8.21377 24.1634 9.09147 24.4595C9.27152 24.5303 9.45939 24.5668 9.65069 24.5668C10.2046 24.5668 10.6034 24.2689 10.7984 24.0956L13.7117 21.2489L17.2501 25.0295C17.3864 25.1898 18.1077 26 19.0767 26C20.2857 26 21.2029 24.8372 21.3941 23.7119C21.4979 23.0951 24.9106 3.30219 24.9106 3.30508C25.2169 1.71755 24.6661 0.894006 24.3123 0.542985C24.0091 0.243245 23.6314 0.0663128 23.2159 0.0153931ZM22.388 3.1358C21.9167 5.86596 19.3471 20.7683 18.9571 22.9163L13.785 17.3892L10.2758 20.8228L11.2477 16.43C11.2477 16.43 17.9525 8.58888 18.3563 8.13241C18.6814 7.76694 18.7495 7.63883 18.7495 7.51171C18.7495 7.3427 18.6742 7.22111 18.5004 7.22111C18.3441 7.22111 18.1319 7.39414 18.0193 7.47503C16.5898 8.50472 10.5027 12.5113 7.50663 14.4804L3.15992 12.4745L5.26978 11.4503C10.6448 8.83571 20.2175 4.17875 22.388 3.1358Z" fill="#DACFEA"/>
</svg>
